# xmcd CD database file
#
# Track frame offsets:
#	150
#	17110
#	34350
#	50287
#	63022
#	81327
#	93932
#	106515
#	120282
#	138152
#	150257
#
# Disc length: 2198 seconds
#
# Revision: 1
# Processed by: cddbd v1.5.2PL0 Copyright (c) Steve Scherf et al.
# Submitted via: CDex 1.51
#
DISCID=7408940b
DTITLE=Maria Muldaur - Maria Muldaur
DYEAR=1973
DGENRE=Rock
TTITLE0=Any Old Time
TTITLE1=Midnight At The Oasis
TTITLE2=My Tehhessee Mountain Home
TTITLE3=I Never Did Sing You A Love Song
TTITLE4=The Work Song
TTITLE5=Don't You Feel My Leg (Don't You Get Me High)
TTITLE6=Walkin' One and Only
TTITLE7=Long Hard Climb
TTITLE8=Three Dollar Bill
TTITLE9=Vaudeville Man
TTITLE10=Mad Mad Me
EXTD=corrected - more info YEAR: 1973
EXTT0=
EXTT1=
EXTT2=
EXTT3=
EXTT4=
EXTT5=
EXTT6=
EXTT7=
EXTT8=
EXTT9=
EXTT10=
PLAYORDER=
